<svg height="55" width="55" xmlns="http://www.w3.org/2000/svg" viewBox="0 0 55 55"><path fill="#222" fill-rule="evenodd" d="M39.31 51.13h-3.37c-1.87 0-3.38-1.52-3.38-3.38v-5.06H22.44v5.06c0 1.86-1.51 3.38-3.38 3.38h-3.37c-.94 0-1.69.75-1.69 1.68 0 .93.75 1.69 1.69 1.69h23.62c.94 0 1.69-.76 1.69-1.69 0-.93-.75-1.68-1.69-1.68zM51.55.5H3.45C1.82.5.5 1.92.5 3.66v32.49c0 1.74 1.32 3.16 2.95 3.16h48.1c1.63 0 2.95-1.42 2.95-3.16V3.66C54.5 1.92 53.18.5 51.55.5zm-.42 35.44H3.88V3.88h47.25v32.06z"/></svg>