<svg height="31" width="31" xmlns="http://www.w3.org/2000/svg" viewBox="0 0 31 31"><path fill="#b2b2b2" fill-rule="evenodd" d="M15.13 30.38c-8.29 0-15-6.72-15-15 0-8.29 6.71-15 15-15 8.28 0 15 6.71 15 15 0 8.28-6.72 15-15 15zm0-27.66c-7 0-12.66 5.67-12.66 12.66 0 6.98 5.66 12.65 12.66 12.65 6.99 0 12.65-5.67 12.65-12.65 0-6.99-5.66-12.66-12.65-12.66zm0 20.16c-4.15 0-7.5-3.36-7.5-7.5 0-4.15 3.35-7.5 7.5-7.5 4.14 0 7.5 3.35 7.5 7.5 0 4.14-3.36 7.5-7.5 7.5zm0-1.65c.73 0 1.43-.14 2.07-.39-.31-1.6-.71-3.03-1.15-4.28a8.024 8.024 0 0 0-3.04 1.84c-.71.68-1.15 1.33-1.36 1.67.97.73 2.17 1.16 3.48 1.16zm-5.86-5.85c0 1.43.53 2.74 1.39 3.76.3-.47.83-1.17 1.61-1.88.81-.74 1.9-1.48 3.29-1.95-.11-.26-.22-.52-.33-.77-2.08.66-4.14.75-5.31.76-.26 0-.48 0-.64-.01 0 .03-.01.06-.01.09zm.18-1.42c.13 0 .28.01.47.01h.09c1.07 0 2.85-.13 4.62-.65-.87-1.65-1.68-2.71-2.09-3.19a5.899 5.899 0 0 0-3.09 3.83zm5.68-4.44c-.43 0-.85.05-1.25.14.51.65 1.25 1.72 2.02 3.2 1.09-.47 2.11-1.13 2.87-2.05-1-.8-2.26-1.29-3.64-1.29zm4.59 2.24c-.92 1.05-2.05 1.79-3.24 2.31.14.29.26.59.4.91.53-.09 1.09-.15 1.69-.15h.01c.74 0 1.54.09 2.39.27a5.843 5.843 0 0 0-1.25-3.34zm-1.15 4.41h-.01c-.42 0-.82.03-1.2.09.41 1.17.78 2.47 1.08 3.93 1.25-.87 2.14-2.2 2.43-3.74-.83-.19-1.6-.28-2.3-.28z"/></svg>