<svg xmlns="http://www.w3.org/2000/svg" viewBox="-584 385.5 31 31"><path fill="#B2B2B2" d="M-568.5 416.5c-8.6 0-15.5-6.9-15.5-15.5s6.9-15.5 15.5-15.5 15.5 6.9 15.5 15.5-6.9 15.5-15.5 15.5zm0-28.6c-7.2 0-13.1 5.9-13.1 13.1 0 7.2 5.9 13.1 13.1 13.1 7.2 0 13.1-5.9 13.1-13.1 0-7.2-5.9-13.1-13.1-13.1zm5.9 10.2h-1v-1.9h-1.9v-1h1.9v-1.9h1v1.9h1.9v1h-1.9v1.9zm-6.1-4.2s1.4.9 1.4 2.5c0 1.7-.8 2.4-1.8 3.3-1 .9-.4 1.4 1.2 2.5s2 3.6 0 5.4c-2.1 1.8-8.3 1.6-8.3-1.8 0-3.4 4.7-3.4 5.1-3.4s.4-.1.1-.4c-.3-.3-.8-1-.2-1.7-1.1 0-4-.5-4-3.2s2.8-3.8 3.8-3.8h5s-.2.2-.8.5c-.5.2-1.5.1-1.5.1zm-5.8 11.3c0 1.5 1.1 2.6 3.2 2.6s3.3-.7 3.3-2.2-1.4-2.2-2.2-2.8c-2.7.1-4.3.9-4.3 2.4zm2.8-11.4c-3 0-1.8 5.9.7 5.9 3.4-.1 1.6-6-.7-5.9z"/></svg>