<svg height="31" width="31" xmlns="http://www.w3.org/2000/svg" viewBox="0 0 31 31"><path fill="#b2b2b2" fill-rule="evenodd" d="M15.25 30.5C6.83 30.5 0 23.67 0 15.25S6.83 0 15.25 0 30.5 6.83 30.5 15.25 23.67 30.5 15.25 30.5zm0-28.12c-7.11 0-12.87 5.76-12.87 12.87 0 7.11 5.76 12.87 12.87 12.87 7.11 0 12.87-5.76 12.87-12.87 0-7.11-5.76-12.87-12.87-12.87zm4.77 13.82c-.04-.23-.69-1.83-1.9-1.91-2.26-.3-2.86 1.66-2.86 1.91v6.67H12.4V11.43h2.86v1.91c.16-.08 1.36-1.87 3.81-1.91 3.13.04 3.7 2.39 3.8 3.53v7.92l-2.85-.01V16.2zM7.63 11.43h2.86v11.44H7.63V11.43zm1.43-.95a1.43 1.43 0 1 1 0-2.86 1.43 1.43 0 0 1 0 2.86z"/></svg>