<svg height="55" width="48" xmlns="http://www.w3.org/2000/svg" viewBox="0 0 48 55"><path fill-rule="evenodd" d="M47.69 38.05c-.32.48-.85.75-1.46.75-.7 0-1.4-.39-1.77-.61l-.21-.17c-.04-.03-4.61-4.14-12.87-4.14-3.1 0-6.36.58-9.69 1.7-.11.04-.52.17-1.06.17-1.3 0-2.33-.75-2.75-2l-4.06-11.99c-.16-.36-.46-1.21-.1-2.14.21-.55.71-1.28 1.91-1.69.22-.06 13.41-3.81 16.33-15.47.39-1.16 1.07-2.39 2.32-2.39.5 0 1.41.2 1.88 1.61l4.06 12.02c2.07.63 3.71 2.21 4.41 4.27.69 2.05.34 4.3-.91 6.06l4.05 11.99c.1.24.49 1.19-.08 2.03zm-7.33-14.69l-2.4-7.1-3.74-11.04c-3.99 11.29-16.2 15.11-17.61 15.52l4.08 12.07c3.69-1.27 7.27-1.89 10.69-1.89 6 0 10.27 1.89 12.67 3.34l-3.69-10.9zm-15.44-1.44c-.52 0-.99-.35-1.13-.87-.17-.62.19-1.27.82-1.44.07-.02 7.05-1.99 7.65-6.7.08-.64.67-1.09 1.31-1.01.64.08 1.09.66 1.02 1.31-.8 6.26-9.01 8.57-9.36 8.67-.1.02-.21.04-.31.04zm-8.67 18.8c0 3.64 3.67 5.42 2.41 8.06 4.34 4.4-1.09 5.35-1.09 5.35-1.76.6-2.08-1.26-2.08-1.26l-3.7-10.96C11 39.07 9.24 39.6 9.24 39.6c-4.46 1.51-6.09-3.61-6.09-3.61L1.1 29.93c-1.49-4.41 3-6.15 3-6.15l5.76-1.95c1.86-.63 2.14 1.13 2.14 1.13l4.65 14.03c.39 1.18-.4 3.73-.4 3.73z"/></svg>