<svg height="55" width="34" xmlns="http://www.w3.org/2000/svg" viewBox="0 0 34 55"><path fill-rule="evenodd" d="M29.29 54.25H4.4c-2.43 0-4.4-1.95-4.4-4.34V4.34C0 1.94 1.97 0 4.4 0h24.89c2.43 0 4.4 1.94 4.4 4.34v45.57c0 2.39-1.97 4.34-4.4 4.34zm-12.44-1.63c1.3 0 2.38-1.05 2.38-2.35 0-1.29-1.08-2.35-2.38-2.35-1.32 0-2.38 1.06-2.38 2.35 0 1.3 1.06 2.35 2.38 2.35zM30.02 8.68c0-.4-.32-.73-.73-.73H4.4c-.41 0-.74.33-.74.73v36.89c0 .4.33.72.74.72h24.89c.41 0 .73-.32.73-.72V8.68zm-2.92 34h-9.52c-.4 0-.73-.32-.73-.72v-.01c0-.4.33-.72.73-.72h9.52c.4 0 .73.32.73.72v.01c0 .4-.33.72-.73.72zm0-3.62h-9.52c-.4 0-.73-.32-.73-.72v-.01c0-.4.33-.72.73-.72h9.52c.4 0 .73.32.73.72v.01c0 .4-.33.72-.73.72zm0-5.07h-9.52c-.4 0-.73-.32-.73-.71v-.02c0-.39.33-.71.73-.71h9.52c.4 0 .73.32.73.71v.02c0 .39-.33.71-.73.71zm0-3.61h-9.52c-.4 0-.73-.32-.73-.72v-.01c0-.4.33-.72.73-.72h9.52c.4 0 .73.32.73.72v.01c0 .4-.33.72-.73.72zm0-5.07h-9.52c-.4 0-.73-.32-.73-.71v-.02c0-.39.33-.71.73-.71h9.52c.4 0 .73.32.73.71v.02c0 .39-.33.71-.73.71zm0-3.61h-9.52c-.4 0-.73-.32-.73-.72v-.01c0-.4.33-.72.73-.72h9.52c.4 0 .73.32.73.72v.01c0 .4-.33.72-.73.72zm0-5.79h-9.53c-.4 0-.72-.32-.72-.71v-.02c0-.4.32-.71.72-.71h9.53c.4 0 .72.31.72.71v.02c0 .39-.32.71-.72.71zm0-3.62h-9.53c-.4 0-.72-.32-.72-.71v-.02c0-.39.32-.71.72-.71h9.53c.4 0 .72.32.72.71v.02c0 .39-.32.71-.72.71zM14.47 39.42a.88.88 0 0 1-.29-.05l-1.51 1.91c.09.14.15.31.15.49a.915.915 0 0 1-1.83 0c0-.08.01-.15.03-.22l-1.86-1.23c-.16.11-.35.19-.55.19-.12 0-.24-.03-.34-.07l-1.43 1.61c.07.13.12.28.12.44a.915.915 0 0 1-1.83 0c0-.49.41-.9.91-.9.12 0 .24.02.34.07l1.43-1.62a.933.933 0 0 1-.12-.44c0-.5.41-.9.92-.9.5 0 .91.4.91.9 0 .08-.01.15-.03.22l1.86 1.23c.16-.11.35-.18.55-.18.1 0 .2.02.29.05l1.51-1.91a.858.858 0 0 1-.15-.49.915.915 0 0 1 1.83 0c0 .49-.41.9-.91.9zm-2.75-29.3h2.2v7.24h-2.2v-7.24zM9.75 36.2v-.77c-1.09-.13-1.69-.79-1.69-.79l.59-.81s.65.63 1.5.63c.46 0 .87-.24.87-.72 0-1-2.86-.9-2.86-2.7 0-.86.65-1.53 1.59-1.68v-.79h.73v.77c.98.08 1.49.61 1.49.61l-.47.88s-.58-.52-1.33-.52c-.51 0-.91.29-.91.71 0 1 2.86.82 2.86 2.7 0 .85-.61 1.58-1.64 1.71v.77h-.73zm4.12-12.45c-.25 1.5-1.49 2.72-3 2.96a3.66 3.66 0 0 1-4.2-2.84h3.58c.41 0 .74-.33.74-.73V19.6c1.86.37 3.21 2.14 2.88 4.15zM8.79 13.02h2.2v4.34h-2.2v-4.34zm1.46 9.76c0 .2-.16.36-.36.36h-3.3c0-1.99 1.64-3.61 3.66-3.61v3.25zm-4.39-7.59h2.2v2.17h-2.2v-2.17z"/></svg>