<svg height="47" width="57" xmlns="http://www.w3.org/2000/svg" viewBox="0 0 57 47"><path fill-rule="evenodd" d="M16.97 26.95c0 6.32 5.13 11.45 11.45 11.45 6.33 0 11.46-5.13 11.46-11.45 0-6.33-5.13-11.46-11.46-11.46-6.32 0-11.45 5.13-11.45 11.46zm36.14-19.4H40.77C39.88 4.03 39 .5 35.48.5H21.37c-3.52 0-4.4 3.53-5.29 7.05H3.74C1.8 7.55.22 9.14.22 11.08v31.73c0 1.94 1.58 3.53 3.52 3.53h49.37c1.94 0 3.52-1.59 3.52-3.53V11.08c0-1.94-1.58-3.53-3.52-3.53zM28.42 42.59c-8.64 0-15.64-7-15.64-15.64 0-8.65 7-15.65 15.64-15.65 8.65 0 15.65 7 15.65 15.65 0 8.64-7 15.64-15.65 15.64zm24.69-24.46h-7.06V14.6h7.06v3.53z"/></svg>