<svg height="40" width="40" xmlns="http://www.w3.org/2000/svg" viewBox="0 0 40 40"><path fill="#fcac45" fill-rule="evenodd" d="M20 40.01C8.97 40.01 0 31.03 0 20 0 8.97 8.97 0 20 0s20.01 8.97 20.01 20S31.03 40.01 20 40.01zm0-38.66C9.72 1.35 1.35 9.72 1.35 20S9.72 38.65 20 38.65 38.65 30.28 38.65 20 30.28 1.35 20 1.35zM11.58 20h16.85m0 .68H11.58a.68.68 0 0 1 0-1.36h16.85c.37 0 .67.31.67.68 0 .38-.3.68-.67.68zM20 11.58v16.85m0 .67c-.37 0-.68-.3-.68-.67V11.58a.68.68 0 0 1 1.36 0v16.85c0 .37-.3.67-.68.67z"/></svg>