<svg xmlns="http://www.w3.org/2000/svg" viewBox="-582 385.5 31 31"><path fill="#B2B2B2" d="M-566.5 416.5c-8.6 0-15.5-6.9-15.5-15.5s6.9-15.5 15.5-15.5 15.5 6.9 15.5 15.5-6.9 15.5-15.5 15.5zm0-28.6c-7.2 0-13.1 5.9-13.1 13.1s5.9 13.1 13.1 13.1 13.1-5.9 13.1-13.1-5.9-13.1-13.1-13.1zm6.2 9.7c0 .1 0 .1 0 0v.1c.2 5.6-3.8 10.1-8.9 10.1-1.8 0-3.5-.6-5-1.5 2.2.4 3.9-.8 4.4-1.4-1.4 0-2.8-1.3-2.9-2.3.3 0 1 .1 1.3-.1-1.9-.6-2.5-2.2-2.5-3.4.3.3 1 .4 1.4.4-1.1-.7-1.9-2.7-1-4.5 1.6 2.2 4.4 3.5 6.8 3.6 0-.2-.1-.5-.1-.8 0-1.9 1.4-3.4 3.2-3.4.9 0 1.7.4 2.3 1.1.5 0 1.5-.5 2-.8-.2.7-.9 1.6-1.3 1.9.7-.1 1.5-.4 1.8-.5-.4.6-1 1.2-1.5 1.5z"/></svg>